<?xml version="1.0" standalone="no"?><!DOCTYPE svg PUBLIC "-//W3C//DTD SVG 1.1//EN" "http://www.w3.org/Graphics/SVG/1.1/DTD/svg11.dtd"><svg t="1680459022330" class="icon" viewBox="0 0 1024 1024" version="1.1" xmlns="http://www.w3.org/2000/svg" p-id="38509" xmlns:xlink="http://www.w3.org/1999/xlink" width="16" height="16"><path d="M703.999045 831.998375h-159.999687v-78.879846L713.599026 639.99875 543.999358 526.878971V447.999125h159.999687v-191.999625h-159.999687V191.999625h159.999687V127.99975h95.999813V63.999875h-95.999813V0H319.999795v63.999875H96.000232v164.543679c-68.181867 17.353966-109.387786 86.695831-92.03382 154.877697A127.393751 127.393751 0 0 0 96.000232 475.455071V671.998688h262.399488l121.599763 81.119841V831.998375h-159.999688v191.999625h383.99925v-63.999875h95.999813v-63.999875h-95.999813v-63.999875z m-63.999875-511.999v63.999875H383.99967v-63.999875h255.9995zM383.99967 63.999875h255.9995v63.999875H383.99967V63.999875zM160.000107 127.99975h159.999688v63.999875h159.999688v63.999875h-159.999688v63.999875h-68.543866A127.711751 127.711751 0 0 0 160.000107 228.543554V127.99975zM64.000295 351.999313c0-35.345931 28.653944-63.999875 63.999875-63.999875s63.999875 28.653944 63.999875 63.999875-28.653944 63.999875-63.999875 63.999875-63.999875-28.653944-63.999875-63.999875z m95.999812 255.9995v-132.543742A127.711751 127.711751 0 0 0 251.455929 383.99925H319.999795v63.999875h159.999688v78.879846L358.39972 607.998813H160.000107z m265.599482 31.999937l86.399831-57.599887 86.399831 57.599887-86.399831 57.599888-86.399831-57.599888zM639.99917 959.998125H383.99967v-63.999875h255.9995v63.999875z" p-id="38510" fill="#2c2c2c"></path><path d="M1020.032428 480.577061A127.387751 127.387751 0 0 0 927.998608 388.543241V191.999625h-63.999875v196.543616c-68.181867 17.353966-109.387786 86.695831-92.033821 154.877698A127.387751 127.387751 0 0 0 863.998733 635.454759V831.998375h63.999875v-196.543616c68.183867-17.353966 109.387786-86.693831 92.03382-154.877698zM895.99867 575.998875c-35.345931 0-63.999875-28.653944-63.999875-63.999875s28.653944-63.999875 63.999875-63.999875c35.345931 0 63.999875 28.653944 63.999875 63.999875s-28.653944 63.999875-63.999875 63.999875zM863.998733 63.999875h63.999875v63.999875h-63.999875zM863.998733 895.99825h63.999875v63.999875h-63.999875z" p-id="38511" fill="#2c2c2c"></path></svg>