<?xml version="1.0" standalone="no"?><!DOCTYPE svg PUBLIC "-//W3C//DTD SVG 1.1//EN" "http://www.w3.org/Graphics/SVG/1.1/DTD/svg11.dtd"><svg t="1680458940171" class="icon" viewBox="0 0 1024 1024" version="1.1" xmlns="http://www.w3.org/2000/svg" p-id="37425" xmlns:xlink="http://www.w3.org/1999/xlink" width="16" height="16"><path d="M496.246154 15.753846c55.138462 0 100.430769 37.415385 110.276923 90.584616L964.923077 366.276923c21.661538 13.784615 29.538462 41.353846 23.630769 68.923077l-159.507692 492.307692c-7.876923 23.630769-31.507692 41.353846-57.107692 41.353846H360.369231c-19.692308 25.6-51.2 41.353846-86.646154 41.353847-63.015385 0-112.246154-51.2-112.246154-112.246154 0-15.753846 3.938462-31.507692 9.846154-45.292308L35.446154 433.230769c-7.876923-25.6 0-53.169231 21.661538-68.923077l326.892308-236.307692 0.078769-4.371692C386.382769 62.72 436.617846 15.753846 496.246154 15.753846zM271.753846 846.769231c-29.538462 0-51.2 21.661538-51.2 51.2s21.661538 51.2 51.2 51.2 51.2-23.630769 51.2-51.2c0-29.538462-21.661538-51.2-51.2-51.2z m266.082462-191.803077l-162.619077 194.166154c6.892308 14.690462 10.752 31.232 10.752 48.836923v9.846154h338.589538L615.975385 674.658462c-3.012923 0.354462-6.065231 0.590769-9.137231 0.708923l-4.233846 0.078769a111.458462 111.458462 0 0 1-64.748308-20.48z m370.491077-185.737846l-193.575385 89.462154a111.655385 111.655385 0 0 1-44.721231 94.247384l106.338462 228.627692 131.958154-412.33723z m-810.141539-24.260923L214.646154 803.446154c17.723077-11.815385 37.415385-17.723077 59.076923-17.723077a113.033846 113.033846 0 0 1 62.503385 18.432l163.623384-195.721846a111.970462 111.970462 0 0 1-8.428308-60.947693l-393.255384-102.518153zM600.615385 512c-29.538462 0-51.2 21.661538-51.2 51.2s21.661538 51.2 51.2 51.2 51.2-23.630769 51.2-51.2c0-29.538462-21.661538-51.2-51.2-51.2z m-3.938462-334.769231a110.158769 110.158769 0 0 1-42.535385 46.729846l39.089231 227.387077c3.091692-0.256 6.203077-0.393846 9.353846-0.393846 39.817846 0 74.141538 19.652923 94.011077 50.038154l211.180308-98.363077z m-194.953846 9.846154L122.249846 390.931692l393.078154 101.592616a112.836923 112.836923 0 0 1 21.779692-20.499693L496.049231 240.246154c-39.305846-0.078769-74.673231-21.720615-94.326154-53.169231z m92.553846-110.276923c-27.569231 0-49.230769 21.661538-47.261538 51.2 0 3.938462 0 7.876923 1.96923 11.815385v1.96923c0 3.938462 1.969231 7.876923 3.938462 11.815385 9.846154 13.784615 25.6 23.630769 43.323077 23.630769 7.876923 0 15.753846 0 21.661538-3.938461 15.753846-7.876923 27.569231-25.6 27.569231-45.292308 0-29.538462-23.630769-51.2-51.2-51.2z" fill="#2c2c2c" p-id="37426"></path></svg>