<?xml version="1.0" standalone="no"?><!DOCTYPE svg PUBLIC "-//W3C//DTD SVG 1.1//EN" "http://www.w3.org/Graphics/SVG/1.1/DTD/svg11.dtd"><svg t="1680466177133" class="icon" viewBox="0 0 1024 1024" version="1.1" xmlns="http://www.w3.org/2000/svg" p-id="53329" xmlns:xlink="http://www.w3.org/1999/xlink" width="16" height="16"><path d="M128 213.333333a128 128 0 0 1 128-128h554.666667a128 128 0 0 1 128 128v597.333334a128 128 0 0 1-128 128H256a128 128 0 0 1-128-128v-21.333334a42.666667 42.666667 0 1 1 85.333333 0v21.333334a42.666667 42.666667 0 0 0 42.666667 42.666666h554.666667a42.666667 42.666667 0 0 0 42.666666-42.666666V213.333333a42.666667 42.666667 0 0 0-42.666666-42.666666H256a42.666667 42.666667 0 0 0-42.666667 42.666666v21.333334a42.666667 42.666667 0 0 1-85.333333 0V213.333333z" fill="#2c2c2c" p-id="53330"></path><path d="M85.333333 384a42.666667 42.666667 0 0 1 42.666667-42.666667h85.333333a42.666667 42.666667 0 0 1 0 85.333334H128a42.666667 42.666667 0 0 1-42.666667-42.666667zM85.333333 512a42.666667 42.666667 0 0 1 42.666667-42.666667h85.333333a42.666667 42.666667 0 0 1 0 85.333334H128a42.666667 42.666667 0 0 1-42.666667-42.666667zM85.333333 640a42.666667 42.666667 0 0 1 42.666667-42.666667h85.333333a42.666667 42.666667 0 0 1 0 85.333334H128a42.666667 42.666667 0 0 1-42.666667-42.666667zM533.333333 341.333333a85.333333 85.333333 0 1 0 0 170.666667 85.333333 85.333333 0 0 0 0-170.666667z m-170.666666 85.333334a170.666667 170.666667 0 1 1 341.333333 0 170.666667 170.666667 0 0 1-341.333333 0z" fill="#2c2c2c" p-id="53331"></path><path d="M533.333333 597.333333a149.418667 149.418667 0 0 0-145.621333 116.096 42.666667 42.666667 0 0 1-83.2-18.858666 234.752 234.752 0 0 1 457.685333 0 42.666667 42.666667 0 1 1-83.2 18.858666A149.418667 149.418667 0 0 0 533.333333 597.333333z" fill="#2c2c2c" p-id="53332"></path></svg>