<?xml version="1.0" standalone="no"?><!DOCTYPE svg PUBLIC "-//W3C//DTD SVG 1.1//EN" "http://www.w3.org/Graphics/SVG/1.1/DTD/svg11.dtd"><svg t="1680465639740" class="icon" viewBox="0 0 1024 1024" version="1.1" xmlns="http://www.w3.org/2000/svg" p-id="40384" xmlns:xlink="http://www.w3.org/1999/xlink" width="16" height="16"><path d="M47.86028 107.588411l112.261052 0 0 112.20272-112.261052 0 0-112.20272Z" fill="#2c2c2c" p-id="40385"></path><path d="M280.044244 107.588411l696.088312 0 0 112.20272-696.088312 0 0-112.20272Z" fill="#2c2c2c" p-id="40386"></path><path d="M47.86028 339.772375l112.261052 0 0 112.20272-112.261052 0 0-112.20272Z" fill="#2c2c2c" p-id="40387"></path><path d="M280.044244 339.772375l696.088312 0 0 112.20272-696.088312 0 0-112.20272Z" fill="#2c2c2c" p-id="40388"></path><path d="M47.86028 571.95634l112.261052 0 0 112.20272-112.261052 0 0-112.20272Z" fill="#2c2c2c" p-id="40389"></path><path d="M280.044244 571.95634l696.088312 0 0 112.20272-696.088312 0 0-112.20272Z" fill="#2c2c2c" p-id="40390"></path><path d="M47.86028 804.140304l112.261052 0 0 112.20272-112.261052 0 0-112.20272Z" fill="#2c2c2c" p-id="40391"></path><path d="M280.044244 804.140304l696.088312 0 0 112.20272-696.088312 0 0-112.20272Z" fill="#2c2c2c" p-id="40392"></path></svg>