<svg version="1.1" xmlns="http://www.w3.org/2000/svg" height="1024" width="1024" viewBox="0 0 1024 1024"><path d="M395.736096 760.630551H617.528257A124.533711 124.533711 0 0 1 742.073623 885.164262a126.270469 126.270469 0 0 1-126.270468 126.270468H417.171653a136.119868 136.119868 0 0 1-136.119868-136.119868 114.684311 114.684311 0 0 1 114.684311-114.684311z" fill="#F4EA78"></path><path d="M344.54253 291.204668a32.182476 32.182476 0 1 0-57.709323 19.512302 13.544381 13.544381 0 0 0-1.864975 6.783847 13.672599 13.672599 0 0 0 26.063027 5.828047c0.442932 0 0.885863 0.069937 1.340451 0.069937s0.885863 0 1.328795-0.069937a13.660942 13.660942 0 1 0 24.209707-12.588582 32.042603 32.042603 0 0 0 6.632318-19.535614z" fill="#FFFFFF"></path><path d="M342.922333 293.256141a32.17082 32.17082 0 0 0-32.17082-32.17082 32.637064 32.637064 0 0 0-4.662438 0.372995 32.100883 32.100883 0 0 1 20.841097 51.286814 13.521069 13.521069 0 0 1-7.156842 19.605551 13.392852 13.392852 0 0 0 4.662437 0.874207 13.707567 13.707567 0 0 0 13.707567-13.695911 13.544381 13.544381 0 0 0-1.864975-6.783847 32.054259 32.054259 0 0 0 6.643974-19.488989z" fill="#EAEAEA"></path><path d="M431.485337 316.778139a32.182476 32.182476 0 1 0-57.720979 19.512302 13.544381 13.544381 0 0 0-1.864975 6.783847 13.684255 13.684255 0 0 0 26.074683 5.828047c0.442932 0 0.885863 0.069937 1.328795 0.069936s0.897519 0 1.34045-0.069936a13.649286 13.649286 0 1 0 24.198052-12.588582 31.984323 31.984323 0 0 0 6.643974-19.535614z" fill="#FFFFFF"></path><path d="M431.333808 318.829612a32.17082 32.17082 0 0 0-32.170821-32.17082 32.637064 32.637064 0 0 0-4.662437 0.372995 32.089227 32.089227 0 0 1 20.841096 51.286814 13.532725 13.532725 0 0 1-7.156842 19.617207 13.392852 13.392852 0 0 0 4.662438 0.874207 13.614318 13.614318 0 0 0 11.842592-20.491414 32.019291 32.019291 0 0 0 6.643974-19.488989z" fill="#EAEAEA"></path><path d="M513.311118 362.796399A32.182476 32.182476 0 1 0 455.59014 382.320357a13.544381 13.544381 0 0 0-1.864975 6.783847 13.684255 13.684255 0 0 0 26.074682 5.828047c0.442932 0 0.885863 0.069937 1.328795 0.069936s0.897519-0.05828 1.340451-0.069936A13.649286 13.649286 0 1 0 506.667145 382.320357a31.995979 31.995979 0 0 0 6.643973-19.523958z" fill="#FFFFFF"></path><path d="M514.954628 364.836215a32.182476 32.182476 0 0 0-32.182477-32.182476 32.718656 32.718656 0 0 0-4.662437 0.384651 32.100883 32.100883 0 0 1 20.852752 51.286815 13.532725 13.532725 0 0 1-7.168498 19.617207 13.614318 13.614318 0 0 0 16.539998-19.617207A31.984323 31.984323 0 0 0 514.954628 364.836215z" fill="#EAEAEA"></path><path d="M579.79748 439.516811a32.182476 32.182476 0 1 0-57.720979 19.512302 13.544381 13.544381 0 0 0-1.864975 6.783847 13.684255 13.684255 0 0 0 26.074683 5.828047c0.442932 0 0.885863 0.069937 1.328795 0.069936s0.885863 0 1.34045-0.069936a13.649286 13.649286 0 1 0 24.198052-12.588582 31.984323 31.984323 0 0 0 6.643974-19.535614z" fill="#FFFFFF"></path><path d="M582.408445 441.568284a32.182476 32.182476 0 0 0-32.182476-32.17082 32.718656 32.718656 0 0 0-4.662438 0.372995 32.100883 32.100883 0 0 1 20.852753 51.286814A13.532725 13.532725 0 0 1 559.247786 480.697792a13.404508 13.404508 0 0 0 4.662437 0.874207 13.614318 13.614318 0 0 0 11.830936-20.491413 31.937698 31.937698 0 0 0 6.667286-19.512302z" fill="#EAEAEA"></path><path d="M508.194093 603.168374a32.182476 32.182476 0 1 0-57.709323 19.512302 13.544381 13.544381 0 0 0-1.864975 6.783847 13.672599 13.672599 0 0 0 26.063027 5.828047c0.442932 0 0.885863 0.069937 1.340451 0.069936s0.885863 0 1.328795-0.069936a13.660942 13.660942 0 1 0 24.209707-12.588582 32.042603 32.042603 0 0 0 6.632318-19.535614z" fill="#FFFFFF"></path><path d="M511.690921 605.219847a32.17082 32.17082 0 0 0-32.17082-32.17082 32.881842 32.881842 0 0 0-4.662438 0.372995 32.100883 32.100883 0 0 1 20.852753 51.286814 13.521069 13.521069 0 0 1-7.156842 19.605551 13.392852 13.392852 0 0 0 4.662438 0.874207 13.707567 13.707567 0 0 0 13.707567-13.695911 13.544381 13.544381 0 0 0-1.864975-6.783847 32.054259 32.054259 0 0 0 6.632317-19.488989zM471.477396 637.332386c-0.454588 0-0.885863 0.069937-1.340451 0.069937s-0.885863-0.05828-1.328795-0.069937a13.742535 13.742535 0 0 1-7.66971 6.993657 13.357884 13.357884 0 0 0 13.684255-2.552685 13.754191 13.754191 0 0 1-3.345299-4.440972z" fill="#EAEAEA"></path><path d="M426.368311 572.477878a32.182476 32.182476 0 1 0-57.709322 19.523958 13.532725 13.532725 0 0 0-1.864975 6.772191 13.672599 13.672599 0 0 0 26.063027 5.828047c0.442932 0 0.885863 0.069937 1.34045 0.069936s0.885863 0 1.328795-0.069936a13.672599 13.672599 0 0 0 26.063027-5.828047 13.521069 13.521069 0 0 0-1.853319-6.772191 32.054259 32.054259 0 0 0 6.632317-19.523958z" fill="#FFFFFF"></path><path d="M428.244943 574.541007A32.182476 32.182476 0 0 0 396.062466 542.358531a32.637064 32.637064 0 0 0-4.662437 0.384651 32.089227 32.089227 0 0 1 20.841096 51.286814 13.532725 13.532725 0 0 1-7.156842 19.617207 13.614318 13.614318 0 0 0 16.539998-19.617207 31.972666 31.972666 0 0 0 6.620662-19.488989z" fill="#EAEAEA"></path><path d="M339.425505 557.16177a32.182476 32.182476 0 1 0-57.709323 19.512302 13.649286 13.649286 0 1 0 24.198052 12.600238c0.454588 0 0.885863 0.05828 1.340451 0.05828s0.885863 0 1.328794-0.05828a13.660942 13.660942 0 1 0 24.209708-12.600238 32.019291 32.019291 0 0 0 6.632318-19.512302z" fill="#FFFFFF"></path><path d="M338.947605 559.189931a32.17082 32.17082 0 0 0-32.17082-32.17082 30.993555 30.993555 0 0 0-4.662438 0.384651 32.100883 32.100883 0 0 1 20.852753 51.286814 13.521069 13.521069 0 0 1-7.168498 19.605551 13.392852 13.392852 0 0 0 4.662437 0.874207 13.695911 13.695911 0 0 0 13.707567-13.695911 13.544381 13.544381 0 0 0-1.864975-6.783847 31.984323 31.984323 0 0 0 6.643974-19.500645zM298.757392 591.30247c-0.442932 0-0.885863 0.069937-1.328795 0.069937s-0.897519 0-1.340451-0.069937a13.765847 13.765847 0 0 1-7.658054 6.993657 13.357884 13.357884 0 0 0 13.684255-2.552685 13.789159 13.789159 0 0 1-3.356955-4.440972z" fill="#EAEAEA"></path><path d="M665.866079 770.736385c33.254837 22.612823 53.944404 60.739907 53.944405 103.739238v-1.002424c0 68.96911-54.783643 123.554599-123.741097 123.554599H385.851728c-17.484141 0-34.047451-2.657589-49.153749-9.150034 20.060138 13.649286 44.293158 22.612823 70.192999 22.612823h210.229315C686.089403 1010.583836 743.414074 955.893441 743.414074 886.924332v-0.442932c0-51.554905-32.823561-96.535772-77.547995-115.745015z" fill="#C9B53D"></path><path d="M381.364132 681.439047s55.168294 7.61143 69.936565 74.074479h-45.120741s-43.675385-38.453455-24.815824-74.074479z" fill="#94DD94"></path><path d="M396.447118 691.556537a65.728715 65.728715 0 0 1 19.430709 6.201042c-17.064522-12.402084-33.056683-14.208779-33.056684-14.208779-18.85956 35.63268 24.815825 74.505754 24.815825 74.505754h5.69983c-11.632782-16.8314-30.46903-40.85461-16.88968-66.498017z" fill="#FFFFFF"></path><path d="M511.714233 757.331876s-77.093407-22.95085-69.155607-95.579972c0 0 20.130075 18.160195 34.292229 22.356388s102.515349 26.319461 103.739239 73.23524z" fill="#99E099"></path><path d="M473.447276 685.25059c-14.162154-4.184538-34.292229-22.146579-34.292229-22.146579a94.227866 94.227866 0 0 0-0.524524 13.276291c4.837279 3.100521 9.896024 6.457476 14.360308 7.774615 14.150498 4.196194 102.573629 30.119347 103.739238 73.887981h20.456446c-1.22389-43.756978-89.58874-68.596115-103.739239-72.792308z" fill="#77DB77"></path><path d="M507.681225 695.461328c-2.844087-1.01408-5.583269-1.946568-8.159266-2.785806a38.465111 38.465111 0 0 0 4.662437 1.771726zM469.321019 681.532296c-12.332148-6.818815-25.060603-18.649751-25.060603-18.649751-7.926144 72.640779 69.155607 95.195322 69.155607 95.195321h6.993657c-20.607975-10.129146-51.111973-33.825985-51.088661-76.54557z" fill="#FFFFFF"></path><path d="M599.391374 755.513526s25.060603-238.949932 142.414159-282.22901c0 0-15.374388 11.061633-11.178194 29.979475s5.035433 166.49565-93.178817 254.102854z" fill="#82DB82"></path><path d="M736.688508 477.632239a113.845072 113.845072 0 0 0-18.206819 8.68379c0.081593 0.431275 0.116561 0.839239 0.209809 1.270515 4.196194 18.906185 5.035433 166.49565-93.178817 254.102854l-28.569087-1.363763c-1.888287 12.273867-2.657589 19.582238-2.657589 19.582238l38.045491 1.818351c98.21425-87.572236 97.375011-235.150045 93.178818-254.102854s11.178194-29.99113 11.178194-29.991131z" fill="#63C663"></path><path d="M726.05815 505.874956c-0.069937-0.349683-0.128217-0.769302-0.186497-1.060705-4.196194-18.906185 11.166538-29.979474 11.166538-29.979474-117.341901 43.337358-142.402503 282.252322-142.402503 282.252321l17.15777 0.827583c7.424932-49.794835 35.621024-197.722326 114.264692-252.039725z" fill="#FFFFFF"></path><path d="M590.439494 754.149763a5.396772 5.396772 0 0 1-1.526949-0.233122 5.058745 5.058745 0 0 1-3.287018-6.340916c0.174841-0.582805 18.381661-58.85162 23.953273-135.595344 3.263706-44.945899 1.608541-87.362426-4.895559-126.037347-8.159266-48.162981-23.813401-90.637789-46.694314-126.258812-49.316935-76.790349-132.459855-122.890201-247.109197-137.0407a5.047089 5.047089 0 0 1 1.235546-10.024241C429.86514 227.142774 515.490808 274.792888 566.509532 354.252482c23.638559 36.809946 39.84053 80.601892 48.162982 130.163604 6.632318 39.514159 8.299139 82.758269 4.95384 128.543407-5.676518 77.862709-24.186396 137.064012-24.372893 137.646817a5.058745 5.058745 0 0 1-4.813967 3.543453z"></path><path d="M590.439494 760.560614a5.035433 5.035433 0 0 1-4.755687-6.737222c0.069937-0.20981 7.285059-20.82944 8.485637-50.121205 1.165609-26.809017-2.750838-66.766108-27.438446-104.426948-19.33746-29.489918-48.722474-53.734594-87.362426-72.057975-46.55444-22.146579-107.142818-35.854146-180.075-40.901235a5.047089 5.047089 0 1 1 0.699366-10.070865c137.810002 9.534685 230.429327 49.107125 275.258665 117.609991 26.179588 40.003715 30.212596 82.268713 29.000362 110.662958-1.328795 30.73712-8.742071 51.834651-9.056785 52.720515a5.047089 5.047089 0 0 1-4.755686 3.321986z"></path><path d="M323.479968 892.018045v-1.165609c0-68.96911 53.769563-126.11894 122.738672-126.11894h-38.82645c-68.96911 0-125.407918 57.278047-125.407918 126.247157S338.42308 1017.227809 407.39219 1017.227809h11.038321c-55.704474-16.796432-94.950544-65.786996-94.950543-125.209764z" fill="#FFFFFF"></path><path d="M327.011764 337.45605a18.754656 18.754656 0 0 1-13.707567-6.014544 18.649751 18.649751 0 0 1-32.450566-12.740111 18.253444 18.253444 0 0 1 1.16561-6.259323 36.763321 36.763321 0 0 1-5.886328-20.036826 37.229565 37.229565 0 0 1 74.447474 0 36.763321 36.763321 0 0 1-5.828047 20.036826 18.253444 18.253444 0 0 1 1.107329 6.259323 18.777968 18.777968 0 0 1-18.847905 18.754655z m-12.367116-17.985353a5.035433 5.035433 0 0 1 4.569189 2.890711 8.613854 8.613854 0 1 0 15.257828-7.926144 5.058745 5.058745 0 0 1 0.372995-5.583269 26.809017 26.809017 0 0 0 5.594925-16.446749 27.123731 27.123731 0 0 0-54.247463 0 26.809017 26.809017 0 0 0 5.594925 16.446749 5.058745 5.058745 0 0 1 0.372996 5.583269 8.508949 8.508949 0 0 0-1.16561 4.266131 8.660478 8.660478 0 0 0 8.648822 8.660478 8.567229 8.567229 0 0 0 7.797927-5.000465 5.035433 5.035433 0 0 1 4.790655-2.890711h0.641085a6.539069 6.539069 0 0 0 0.9558 0h0.641085z"></path><path d="M313.304197 265.269859a5.023777 5.023777 0 0 1-4.196193-2.249627c-0.303058-0.454588-7.343339-11.294755-3.694982-24.058178 2.727526-9.557997 10.490485-17.344268 23.149003-23.137347a5.047089 5.047089 0 0 1 4.20785 9.138378c-9.779463 4.47594-15.712415 10.070865-17.624015 16.633246-2.401155 8.240859 2.331219 15.747383 2.401156 15.828976a5.058745 5.058745 0 0 1-4.242819 7.797927zM323.106973 600.394224a18.754656 18.754656 0 0 1-13.695911-6.014545A18.649751 18.649751 0 0 1 276.960496 581.639568a18.253444 18.253444 0 0 1 1.165609-6.259323 36.763321 36.763321 0 0 1-5.886328-20.036826 37.229565 37.229565 0 0 1 74.45913 0 36.763321 36.763321 0 0 1-5.828047 20.036826 18.253444 18.253444 0 0 1 1.107329 6.259323 18.777968 18.777968 0 0 1-18.871216 18.754656z m-12.35546-17.985354a5.023777 5.023777 0 0 1 4.557533 2.890712 8.613854 8.613854 0 1 0 15.257827-7.926144 5.058745 5.058745 0 0 1 0.372995-5.58327 26.809017 26.809017 0 0 0 5.594925-16.446749 27.123731 27.123731 0 0 0-54.247462 0 26.809017 26.809017 0 0 0 5.594925 16.446749 5.058745 5.058745 0 0 1 0.372995 5.58327 8.543917 8.543917 0 0 0-1.165609 4.26613 8.62551 8.62551 0 0 0 16.458405 3.660014 5.070401 5.070401 0 0 1 4.767342-2.890712h0.652741a6.539069 6.539069 0 0 0 0.9558 0h0.652741z"></path><path d="M309.411062 528.219688a5.035433 5.035433 0 0 1-4.20785-2.261282c-0.303058-0.454588-7.343339-11.294755-3.694982-24.058179 2.727526-9.557997 10.490485-17.344268 23.149003-23.137347a5.047089 5.047089 0 0 1 4.20785 9.185003c-9.826087 4.499252-15.770695 10.129146-17.647326 16.726495-2.331219 8.159266 2.331219 15.630822 2.401155 15.712415a5.047089 5.047089 0 0 1-4.20785 7.832895zM411.005579 620.302833a18.754656 18.754656 0 0 1-13.707567-6.026201 18.649751 18.649751 0 0 1-32.450566-12.740111 18.253444 18.253444 0 0 1 1.107329-6.259323 36.763321 36.763321 0 0 1-5.828047-20.036826 37.229565 37.229565 0 0 1 74.447474 0 36.763321 36.763321 0 0 1-5.874672 20.048482 18.253444 18.253444 0 0 1 1.107329 6.259323 18.766312 18.766312 0 0 1-18.80128 18.754656z m-12.367116-17.99701a5.070401 5.070401 0 0 1 4.569189 2.902368 8.567229 8.567229 0 0 0 7.797927 5.000464 8.660478 8.660478 0 0 0 8.648822-8.660478 8.508949 8.508949 0 0 0-1.165609-4.26613 5.070401 5.070401 0 0 1 0.372995-5.58327 26.809017 26.809017 0 0 0 5.594925-16.446749 27.123731 27.123731 0 1 0-54.247463 0 26.809017 26.809017 0 0 0 5.594926 16.446749 5.058745 5.058745 0 0 1 0.372995 5.58327 8.508949 8.508949 0 0 0-1.16561 4.26613 8.62551 8.62551 0 0 0 16.388469 3.660014 5.035433 5.035433 0 0 1 4.767342-2.890712h0.652742a6.539069 6.539069 0 0 0 0.955799 0h0.652742z"></path><path d="M397.298012 548.128297a5.047089 5.047089 0 0 1-5.047088-5.047089c0-1.317139 0.221466-32.264069 19.81536-44.129972a5.047089 5.047089 0 1 1 5.245242 8.625509c-12.238899 7.436588-14.919801 28.149468-14.9198 35.504463a5.047089 5.047089 0 0 1-5.093714 5.047089zM493.320917 648.254147a18.777968 18.777968 0 0 1-13.707567-6.002889 18.649751 18.649751 0 0 1-32.450566-12.740111 17.950385 17.950385 0 0 1 1.165609-6.259323 36.821602 36.821602 0 0 1-5.886328-20.036826 37.229565 37.229565 0 1 1 74.447474 0 36.821602 36.821602 0 0 1-5.886327 20.036826 18.206819 18.206819 0 0 1 1.107329 6.259323 18.766312 18.766312 0 0 1-18.789624 18.743z m-12.367116-17.99701a5.047089 5.047089 0 0 1 4.569189 2.902368 8.567229 8.567229 0 0 0 7.797927 4.988808 8.660478 8.660478 0 0 0 8.648822-8.648822 8.462324 8.462324 0 0 0-1.16561-4.266131 5.047089 5.047089 0 0 1 0.361339-5.583269A26.809017 26.809017 0 0 0 506.795362 603.203342a27.135387 27.135387 0 1 0-48.664194 16.446749 5.023777 5.023777 0 0 1 0.372995 5.583269 8.462324 8.462324 0 0 0-1.165609 4.266131 8.660478 8.660478 0 0 0 8.648822 8.648822 8.567229 8.567229 0 0 0 7.797927-4.988808 5.058745 5.058745 0 0 1 4.778998-2.902368H480.813928z"></path><path d="M479.61335 576.067955a5.047089 5.047089 0 0 1-5.047089-5.047089c0-1.305483 0.233122-32.252413 19.81536-44.129973a5.047089 5.047089 0 0 1 5.233587 8.637166C484.905217 544.433315 484.648783 570.764432 484.648783 571.032522a5.058745 5.058745 0 0 1-5.035433 5.035433zM414.910371 362.108689a18.789624 18.789624 0 0 1-13.707567-6.002888 18.719687 18.719687 0 0 1-32.450566-12.740111 18.32338 18.32338 0 0 1 1.165609-6.270979 36.763321 36.763321 0 0 1-5.828047-20.036826 37.229565 37.229565 0 0 1 74.447474 0 36.763321 36.763321 0 0 1-5.886328 20.036826 18.32338 18.32338 0 0 1 1.107329 6.270979 18.754656 18.754656 0 0 1-18.847904 18.742999z m-12.367116-17.985353a5.058745 5.058745 0 0 1 4.569189 2.890711 8.543917 8.543917 0 0 0 7.797927 5.000465 8.660478 8.660478 0 0 0 8.648822-8.648822 8.485637 8.485637 0 0 0-1.16561-4.266131 5.070401 5.070401 0 0 1 0.372995-5.594925 26.809017 26.809017 0 0 0 5.594926-16.446749 27.123731 27.123731 0 0 0-54.247463 0 26.809017 26.809017 0 0 0 5.594925 16.446749 5.070401 5.070401 0 0 1 0.372995 5.594925 8.485637 8.485637 0 0 0-1.165609 4.266131 8.660478 8.660478 0 0 0 8.660478 8.648822 8.567229 8.567229 0 0 0 7.797927-5.000465 5.012121 5.012121 0 0 1 4.767342-2.890711h0.652742a6.539069 6.539069 0 0 0 0.955799 0h0.652742z"></path><path d="M401.191148 289.922498a5.000464 5.000464 0 0 1-4.196194-2.249626c-0.303058-0.454588-7.343339-11.294755-3.694982-24.058179 2.727526-9.557997 10.490485-17.344268 23.149003-23.137347a5.047089 5.047089 0 0 1 4.20785 9.185002c-9.779463 4.47594-15.700759 10.070865-17.624014 16.633247C400.631655 274.536454 405.387342 282.077946 405.387342 282.077946a5.058745 5.058745 0 0 1-4.242818 7.797928zM497.225708 410.411544a18.824592 18.824592 0 0 1-13.742535-6.014545A18.649751 18.649751 0 0 1 451.067575 391.645232a17.950385 17.950385 0 0 1 1.165609-6.259322 36.821602 36.821602 0 0 1-5.828047-20.036826 37.229565 37.229565 0 1 1 74.447474 0 36.821602 36.821602 0 0 1-5.886327 20.036826 18.206819 18.206819 0 0 1 1.107329 6.259322 18.766312 18.766312 0 0 1-18.847905 18.766312z m-12.367116-17.99701a5.047089 5.047089 0 0 1 4.569189 2.902368 8.567229 8.567229 0 0 0 7.797927 4.988808 8.660478 8.660478 0 0 0 8.648822-8.648822 8.462324 8.462324 0 0 0-1.165609-4.26613 5.047089 5.047089 0 0 1 0.361339-5.583269 26.809017 26.809017 0 0 0 5.606581-16.446749 27.135387 27.135387 0 1 0-54.259119 0 26.890609 26.890609 0 0 0 5.594926 16.446749 5.023777 5.023777 0 0 1 0.372995 5.583269 8.462324 8.462324 0 0 0-1.16561 4.26613 8.62551 8.62551 0 0 0 16.435093 3.660014 5.023777 5.023777 0 0 1 4.778999-2.902368H484.683751z"></path><path d="M483.483173 338.225352a5.012121 5.012121 0 0 1-4.196194-2.261282c-0.303058-0.454588-7.343339-11.294755-3.694982-24.058178 2.727526-9.557997 10.490485-17.344268 23.149003-23.137347a5.047089 5.047089 0 0 1 4.20785 9.185002c-9.779463 4.487596-15.700759 10.082522-17.612358 16.633246-2.412812 8.240859 2.331219 15.759039 2.389499 15.828976a5.058745 5.058745 0 0 1-4.242818 7.809583zM564.364811 486.304373a18.812936 18.812936 0 0 1-13.707567-6.002888 18.719687 18.719687 0 0 1-32.450566-12.740111 17.950385 17.950385 0 0 1 1.165609-6.259323 36.833258 36.833258 0 0 1-5.886327-20.048482 37.229565 37.229565 0 0 1 74.447473 0 36.833258 36.833258 0 0 1-5.886327 20.048482 18.218475 18.218475 0 0 1 1.165609 6.259323 18.766312 18.766312 0 0 1-18.847904 18.742999z m-12.367116-17.985353a5.058745 5.058745 0 0 1 4.569189 2.890711 8.555573 8.555573 0 0 0 7.797927 5.000465 8.660478 8.660478 0 0 0 8.648822-8.648822 8.462324 8.462324 0 0 0-1.16561-4.266131 5.047089 5.047089 0 0 1 0.361339-5.583269 26.809017 26.809017 0 0 0 5.606582-16.458405 27.135387 27.135387 0 1 0-48.664194 16.458405 5.023777 5.023777 0 0 1 0.372995 5.583269 8.462324 8.462324 0 0 0-1.165609 4.266131 8.660478 8.660478 0 0 0 8.648822 8.648822 8.555573 8.555573 0 0 0 7.797927-5.000465 5.105369 5.105369 0 0 1 4.778998-2.890711h0.641086a6.539069 6.539069 0 0 0 0.955799 0h0.652742z"></path><path d="M550.657244 414.129838a5.047089 5.047089 0 0 1-5.047089-5.000464c0-1.352107 0.233122-33.1849 19.931921-44.223222a5.047089 5.047089 0 1 1 4.930528 8.812007c-7.331683 4.102945-10.945072 13.229667-12.693486 20.165043A71.032238 71.032238 0 0 0 555.750957 409.129374a5.058745 5.058745 0 0 1-5.093713 5.000464zM637.448522 762.378965h-0.244778l-38.045492-1.806694a5.058745 5.058745 0 0 1-4.778998-5.571614 706.732305 706.732305 0 0 1 27.403477-125.885817c12.297179-38.266957 27.112075-70.635931 44.04838-96.232714 21.458869-32.415598 46.426223-54.060965 74.226008-64.318328a5.047089 5.047089 0 0 1 4.662438 8.835319c-0.501212 0.372995-12.588582 9.476405-9.196658 24.792513 2.039816 9.231627 3.893135 50.902163-8.159266 103.517773-10.327299 44.875963-33.721081 108.273459-86.523188 155.434016a5.023777 5.023777 0 0 1-3.391923 1.235546z m-32.392286-11.656094l30.562279 1.457012c95.160353-86.39497 93.73831-231.303534 90.078296-247.82022a33.056683 33.056683 0 0 1 0.920832-18.265099c-30.189284 17.717263-66.812732 57.697666-95.218634 146.085829-16.982929 52.837075-24.279644 102.573629-26.342773 118.542478zM580.590094 762.378965h-68.875861a4.965496 4.965496 0 0 1-1.433699-0.20981 126.223844 126.223844 0 0 1-39.292694-21.470525c-25.317037-20.526382-36.891538-48.011452-33.441334-79.506219a5.047089 5.047089 0 0 1 8.392388-3.205426c0.198154 0.174841 19.465677 17.484141 32.345661 21.260716l3.158802 0.909175c68.316368 19.349116 103.366244 45.27227 104.193826 77.035127a5.035433 5.035433 0 0 1-5.047089 5.186962z m-68.083246-10.105834h62.488321c-5.828047-30.515655-54.900204-50.669042-96.302651-62.406728l-3.275362-0.932488c-9.42978-2.797463-20.899377-10.956729-28.38259-16.878024 0 23.941618 10.059209 44.293158 30.061067 60.61169a119.218532 119.218532 0 0 0 35.411215 19.60555zM451.347321 760.560614h-45.167365a5.023777 5.023777 0 0 1-3.333643-1.258858 118.041266 118.041266 0 0 1-20.456445-24.839137c-12.180618-20.013514-14.080562-39.164477-5.49002-55.389759a5.070401 5.070401 0 0 1 5.151993-2.634278c0.617773 0.081593 15.152922 2.17969 31.471455 12.821704 15.059674 9.826087 34.688536 29.140236 42.719585 65.099286a5.047089 5.047089 0 0 1-4.930528 6.142762z m-43.127548-10.094177h36.70504c-13.241323-47.603489-49.153749-60.355256-60.61169-63.257624-11.119914 27.450102 17.216051 56.88174 23.860025 63.257624zM929.445338 1024h-114.462845a5.047089 5.047089 0 1 1 0-10.094178h114.462845a5.047089 5.047089 0 1 1 0 10.094178zM771.213859 1024H182.079889a5.047089 5.047089 0 0 1 0-10.094178h589.13397a5.047089 5.047089 0 0 1 0 10.094178zM138.322911 1024H94.554277a5.047089 5.047089 0 0 1 0-10.094178h43.768634a5.047089 5.047089 0 1 1 0 10.094178z"></path><path d="M626.783196 754.149763a5.047089 5.047089 0 0 1-4.662438-6.993657c0.291402-0.664397 28.534119-67.920061 48.454384-141.330142a5.047089 5.047089 0 1 1 9.744494 2.645933c-20.106763 74.086135-48.605913 141.936259-48.885659 142.612313a5.058745 5.058745 0 0 1-4.650781 3.065553z"></path><path d="M237.143278 226.280223a15.968849 15.968849 0 1 1 15.968849-15.968849 15.992161 15.992161 0 0 1-15.968849 15.968849z m0-25.212131a9.243283 9.243283 0 1 0 9.231626 9.243282 9.243283 9.243283 0 0 0-9.231626-9.243282zM574.680454 31.938164a15.968849 15.968849 0 1 1 15.968849-15.968849 15.980505 15.980505 0 0 1-15.968849 15.968849z m0-25.200475a9.231627 9.231627 0 1 0 9.231627 9.231626 9.243283 9.243283 0 0 0-9.231627-9.231626z" fill="#FFD304"></path><path d="M501.993051 116.561408h-37.031412a3.368611 3.368611 0 1 1 0-6.737222h37.031412a3.368611 3.368611 0 0 1 0 6.737222z" fill="#FD6C00"></path><path d="M483.483173 135.024662a3.368611 3.368611 0 0 1-3.368611-3.368611V94.624639a3.368611 3.368611 0 1 1 6.725566 0V131.714331a3.368611 3.368611 0 0 1-3.356955 3.310331zM815.903324 484.719145h-30.690496a3.368611 3.368611 0 1 1 0-6.725567h30.690496a3.368611 3.368611 0 0 1 0 6.725567z" fill="#FD6C00"></path><path d="M800.528936 500.046908a3.380267 3.380267 0 0 1-3.368611-3.368611V466.011113a3.368611 3.368611 0 0 1 6.737222 0v30.690496A3.368611 3.368611 0 0 1 800.528936 500.046908z" fill="#FD6C00"></path><path d="M666.005953 236.246184c0-1.095673 0.198154 0 0.477899-6.725566h-13.859096c-1.736758 0-3.147145 4.988808-3.147145 6.725566s1.410387 6.737222 3.147145 6.737222H666.483852c-0.279746-6.737222-0.4779-5.64155-0.477899-6.737222zM688.047627 230.091766l10.362268-10.350611a3.147145 3.147145 0 0 0-4.452628-4.452628l-10.362268 10.350611a11.749343 11.749343 0 0 1 4.452628 4.452628zM676.974337 224.077222c1.107329 0 0 0.198154 3.368611 0.477899v-13.859096a3.368611 3.368611 0 0 0-6.725566 0v13.859096c3.356955-0.279746 2.191346-0.4779 3.356955-0.477899zM667.579525 230.091766a11.830936 11.830936 0 0 1 4.452628-4.452628l-10.362267-10.350611a3.147145 3.147145 0 0 0-4.440972 4.452628zM703.002396 229.520618h-13.859096c0.279746 6.725566 0.4779 5.629894 0.477899 6.725566s-0.198154 0-0.477899 6.737222h13.859096c1.736758 0 3.147145-5.000464 3.147145-6.737222s-1.410387-6.725566-3.147145-6.725566z" fill="#39ADFB"></path><path d="M688.047627 241.654612a11.656094 11.656094 0 0 1-4.452628 4.452628l10.362268 10.362267a3.147145 3.147145 0 1 0 4.452628-4.452628zM676.974337 247.680812c-1.095673 0 0-0.198154-3.356955-0.477899V261.096977a3.368611 3.368611 0 0 0 6.725566 0v-13.894064c-3.368611 0.279746-2.284594 0.4779-3.368611 0.477899zM667.579525 241.654612l-10.350611 10.362267a3.135489 3.135489 0 0 0 0 4.452628 3.135489 3.135489 0 0 0 4.440972 0l10.362267-10.362267a11.749343 11.749343 0 0 1-4.452628-4.452628z" fill="#39ADFB"></path><path d="M295.528654 949.890553a5.058745 5.058745 0 0 1-4.464284-2.669246 130.303477 130.303477 0 0 1 115.115586-191.637845H616.362647a128.671624 128.671624 0 0 1 56.40384 12.89164 5.047089 5.047089 0 0 1-4.394347 9.091754 118.56579 118.56579 0 0 0-52.009493-11.889216H406.179956a120.2093 120.2093 0 0 0-106.21033 176.776325 5.058745 5.058745 0 0 1-2.063129 6.842127 5.128681 5.128681 0 0 1-2.377843 0.594461zM616.362647 1016.481819H406.179956a130.221885 130.221885 0 0 1-100.0326-46.950747 5.047089 5.047089 0 0 1 7.739646-6.480789 120.151019 120.151019 0 0 0 92.292954 43.337359H616.362647a120.232612 120.232612 0 0 0 74.808813-214.472134 5.047089 5.047089 0 0 1 6.294291-7.902832A130.338446 130.338446 0 0 1 616.362647 1016.481819z"></path></svg>