<?xml version="1.0" standalone="no"?><!DOCTYPE svg PUBLIC "-//W3C//DTD SVG 1.1//EN" "http://www.w3.org/Graphics/SVG/1.1/DTD/svg11.dtd"><svg t="1680459303662" class="icon" viewBox="0 0 1025 1024" version="1.1" xmlns="http://www.w3.org/2000/svg" p-id="43277" xmlns:xlink="http://www.w3.org/1999/xlink" width="16.015625" height="16"><path d="M384 0l0 96c73.472 0 144.704 14.368 211.712 42.72 64.768 27.392 122.944 66.624 172.96 116.608s89.216 108.192 116.64 172.96c28.352 67.008 42.72 138.24 42.72 211.712l96 0c0-353.472-286.528-640-640-640z" fill="#444444" p-id="43278"></path><path d="M384 192l0 96c94.016 0 182.432 36.608 248.896 103.104s103.104 154.88 103.104 248.896l96 0c0-247.424-200.576-448-448-448z" fill="#444444" p-id="43279"></path><path d="M480 384l-64 64-224 64-192 416 25.376 25.376 232.8-232.8c-1.408-5.28-2.176-10.848-2.176-16.576 0-35.36 28.64-64 64-64s64 28.64 64 64-28.64 64-64 64c-5.728 0-11.296-0.768-16.576-2.176l-232.8 232.8 25.376 25.376 416-192 64-224 64-64-160-160z" fill="#444444" p-id="43280"></path></svg>