<?xml version="1.0" standalone="no"?><!DOCTYPE svg PUBLIC "-//W3C//DTD SVG 1.1//EN" "http://www.w3.org/Graphics/SVG/1.1/DTD/svg11.dtd"><svg t="1680459251274" class="icon" viewBox="0 0 1024 1024" version="1.1" xmlns="http://www.w3.org/2000/svg" p-id="42247" xmlns:xlink="http://www.w3.org/1999/xlink" width="16" height="16"><path d="M512.001274 15.045039a497.880869 497.880869 0 0 1 496.99699 497.086142c0 137.285182-55.886849 261.573274-145.67566 351.652466-89.81301 90.098296-214.335444 145.167493-351.32133 145.167494-137.262257 0-261.529972-55.069197-351.31751-145.173862-89.788811-90.079192-145.67566-214.367284-145.67566-351.646098a497.880869 497.880869 0 0 1 496.99317-497.086142zM489.215293 932.144136V771.518957a405.118201 405.118201 0 0 0-129.123952 26.595319 137.138718 137.138718 0 0 0-17.101903 6.511917c3.53042 7.062113 6.785742 14.098754 10.570881 20.887043 25.514032 45.602527 55.33538 80.88762 88.987717 101.223193a372.744559 372.744559 0 0 0 46.671078 5.40898z m320.120674-717.103117a128.736778 128.736778 0 0 0-10.591259-10.061441 441.222218 441.222218 0 0 1-58.315604 36.934404c27.141693 70.795612 43.939205 156.01602 46.672351 247.447775h144.843999a419.629601 419.629601 0 0 0-122.609487-274.320738z m-46.672352-40.41388a415.300634 415.300634 0 0 0-85.71329-49.415687 434.384259 434.384259 0 0 1 33.623044 51.562976c3.805517 7.062113 7.861934 15.201692 11.942549 23.339997 13.571483-8.138305 27.117495-16.556802 40.137509-25.493654z m-181.233302-77.3572c-15.172399-2.404557-30.921738-4.056417-46.64688-5.133883V253.306336a429.022402 429.022402 0 0 0 129.127773-26.588951c5.985921-2.177856 11.392353-4.356986 17.076431-6.787015-2.954752-7.337211-7.036641-14.373851-10.541588-20.887043-24.989309-46.15527-55.610477-80.888893-89.013189-101.774662z m-92.217567-5.133883c-15.723868 1.077466-31.473207 2.729325-46.671078 5.133883-33.652337 20.887043-63.473685 55.619393-88.987717 101.774662-3.781319 6.510644-7.036641 13.547285-10.816686 20.887042 5.684078 2.430029 11.392353 4.609159 17.351529 6.787016a428.859382 428.859382 0 0 0 129.123952 26.595318V92.130962z m-142.141419 33.075396a414.845959 414.845959 0 0 0-85.732395 49.415687c13.020014 8.940673 26.591498 17.355349 40.412607 25.493654a233.26369 233.26369 0 0 1 11.667451-23.339997c10.041064-19.007209 21.708515-35.811089 33.652337-51.562976z m-122.088585 79.763031c-3.255322 3.004423-7.060839 6.536116-10.316162 10.061441a419.628328 419.628328 0 0 0-122.614581 274.32456h144.874565c2.703853-91.430482 19.529385-176.648342 46.370508-247.447775a478.47757 478.47757 0 0 1-58.31433-36.934405zM92.051999 535.189712a420.779662 420.779662 0 0 0 122.614581 274.319464l10.316162 10.293237a425.318773 425.318773 0 0 1 58.318151-37.413278c-26.841123-71.096182-43.666655-155.742195-46.370508-247.19815H92.051999z m169.286933 314.488813a415.88267 415.88267 0 0 0 85.732395 49.383847 360.53328 360.53328 0 0 1-33.652337-51.562976c-4.075521-7.313012-8.137031-15.176219-11.667451-22.788528a416.635367 416.635367 0 0 0-40.412607 24.962563z m273.441954 82.465611a371.780443 371.780443 0 0 0 46.646879-5.40898c33.402711-20.335574 64.02388-55.620666 89.013189-101.223194 3.504948-6.787015 7.586836-13.823656 10.541589-20.887042a133.885943 133.885943 0 0 0-17.076431-6.511918 405.259571 405.259571 0 0 0-129.120132-26.594045v160.625179z m142.169439-33.081764a416.339892 416.339892 0 0 0 85.71329-49.383847 390.678122 390.678122 0 0 0-40.137509-24.962563c-4.075521 7.612308-8.137031 15.475516-11.942548 22.788528-10.592533 18.706639-21.684316 36.362558-33.623045 51.562976z m121.789288-79.259959l10.591259-10.293237a420.780936 420.780936 0 0 0 122.614582-274.319464H787.101455c-2.729325 91.455954-19.530658 176.101968-46.672351 247.198149a395.620965 395.620965 0 0 1 58.315604 37.414552z m-99.82478-558.105599a203.624467 203.624467 0 0 1-19.004662 7.33721 460.617875 460.617875 0 0 1-145.124191 29.826442v190.500018h206.195866c-2.452954-84.393841-17.375727-162.553409-42.064466-227.66367z m-209.69954 37.163652a456.062207 456.062207 0 0 1-144.873292-29.826442 187.929892 187.929892 0 0 1-19.530658-7.33721c-24.412368 65.110261-39.608965 143.269829-42.064466 227.66367H489.215293V298.860466z m0 426.554165v-190.224919H282.746877c2.454228 84.144215 17.652098 161.977742 42.064466 227.388572 6.510644-2.428756 13.020014-5.158081 19.530658-7.33721 45.019218-17.354076 93.864332-27.396413 144.873292-29.826443z m45.570687 0a465.365857 465.365857 0 0 1 144.874566 29.826443c6.50937 2.17913 12.743643 4.908455 19.254287 7.33721 24.688739-65.410831 39.608965-143.244357 42.064466-227.388572H534.78598v190.224919z" fill="#3B3F51" p-id="42248"></path></svg>