<?xml version="1.0" standalone="no"?><!DOCTYPE svg PUBLIC "-//W3C//DTD SVG 1.1//EN" "http://www.w3.org/Graphics/SVG/1.1/DTD/svg11.dtd"><svg t="1680464018413" class="icon" viewBox="0 0 1025 1024" version="1.1" xmlns="http://www.w3.org/2000/svg" p-id="34015" xmlns:xlink="http://www.w3.org/1999/xlink" width="16.015625" height="16"><path d="M742.68 456.359c-0.293-2.738-1.173-5.378-2.64-7.725 3.912-5.183 6.552-8.997 10.366-14.18 1.27 0 0-1.27 0-1.27-1.272-1.272-2.64-3.814-3.912-5.086-1.271-1.27-1.271-2.542-2.64-3.911-5.183 1.369-11.735 3.911-16.917 5.183-1.272-2.543-3.912-3.814-6.454-6.454-1.272-1.272-2.64-1.272-2.64-2.64 0-5.086 1.27-11.54 2.64-16.722-3.912-2.64-6.552-3.814-10.464-6.454-5.182 2.64-9.094 6.454-13.005 10.267-1.271 1.272-1.271 0-2.543 0-2.64-2.542-6.551-2.542-10.463-3.813-1.369-5.183-2.64-11.54-3.911-16.722-3.814-1.271-7.726-1.271-11.735-1.271-2.542 5.085-3.911 10.268-6.552 15.45-3.911 0-6.454 1.272-10.365 1.272-3.912-3.912-6.552-8.997-10.463-12.908-1.37 0-2.64 1.27-3.912 1.27-2.64 1.37-5.28 1.37-7.823 2.543v18.189c-2.542 2.542-5.183 3.813-7.725 5.183-2.64 1.27-3.912 2.542-6.552 3.813l-15.646-7.725c-2.64 3.814-5.28 6.454-7.823 8.996l7.823 15.45s-1.369 1.272-1.369 2.543c-2.64 2.64-3.911 5.183-5.28 7.726h-18.189v1.27c-1.369 2.641-1.369 6.455-2.64 8.997l1.271 1.271c3.912 2.543 9.094 6.454 13.006 8.997-1.271 3.814-1.271 8.996-1.271 12.908l-15.646 7.725c0 3.814 1.27 7.725 1.27 11.539 5.086 1.271 11.735 2.64 16.918 3.814 1.271 3.813 2.543 6.454 3.912 10.267-3.912 5.085-7.823 8.997-11.735 14.18 2.64 3.813 3.912 6.453 6.552 10.267h1.369c5.085-1.271 11.734-2.542 16.917-3.814 0 1.272 1.271 1.272 5.085 1.272 2.64 2.542 6.552 5.085 9.192 7.725-1.271 6.454-2.64 11.539-3.911 17.993 3.911 2.64 6.551 3.911 10.463 6.454 5.183-3.814 9.094-7.725 14.277-11.637 3.911 1.271 6.552 2.64 10.463 3.912 0 1.27 1.369 0 1.369 1.27 1.271 5.086 2.64 11.54 3.912 16.722 3.911 0 7.823 1.37 11.734 1.37v-1.272c2.64-5.183 3.912-10.267 6.552-15.45 2.542 0 6.454 0 10.365-1.271 3.912 3.911 6.552 8.996 10.463 12.81 1.272 0 2.543-1.272 3.912-1.272 2.64-1.27 5.28-1.27 7.823-2.542v-17.993c2.542-2.542 5.183-3.814 7.725-5.085 2.64-1.369 3.912-2.64 6.552-3.814l15.646 7.726c2.64-3.814 5.28-6.454 7.823-8.997l-7.823-15.45s1.271-1.37 1.271-2.64c2.64-2.543 3.912-6.454 5.28-8.997h18.19v-1.271c0-2.543 1.27-6.454 2.64-8.997-3.912-3.813-9.095-7.725-16.918-5.084 1.271-3.814 1.271-8.997 1.271-12.81l15.646-7.726c0-3.814 0-7.725-1.369-11.539-5.182-1.271-11.734-2.64-16.917-3.813-1.173-2.836-1.173-5.477-2.445-8.019z m-75.59 77.154c-28.749 0-52.12-23.078-52.12-51.436s23.371-51.436 52.12-51.436 52.121 23.078 52.121 51.436c0 28.456-23.273 51.436-52.12 51.436z m-89.866-95.147c-3.911-8.996-9.094-16.722-13.006-25.718 0.294-1.956 1.272-3.716 2.64-5.183 2.641-3.813 5.183-8.996 7.824-14.179 10.463-1.271 19.46-1.271 30.02-1.271 0 0 1.272-1.37 1.272-2.543 1.369-5.085 3.911-10.267 5.182-15.45-7.725-5.085-15.646-11.539-23.37-16.722 1.27-6.454 1.27-14.179 1.27-20.633 9.095-3.814 16.918-8.996 26.11-12.81-1.272-6.454-1.272-12.908-2.64-19.264-9.095-1.37-19.558-2.543-28.652-5.183l-3.912-11.539c-1.369-3.813-3.911-7.725-5.182-11.539 5.182-7.725 11.734-15.45 16.917-23.175 1.271-1.271 0-2.543 0-2.543-2.64-3.813-3.912-6.454-6.552-8.996-1.271-2.543-2.64-3.814-3.912-6.454l-27.38 7.725a98.04 98.04 0 0 1-11.734-10.268c-1.272-1.27-3.814-2.542-3.814-3.813 1.271-8.997 3.814-17.993 5.183-26.99-5.183-3.813-11.735-6.356-16.918-10.267-6.454 5.182-13.005 11.539-20.828 15.45-1.37 1.271-2.64 0-3.912 0a107.15 107.15 0 0 0-18.188-5.183c-1.565-9.094-3.814-18.188-6.552-26.989-6.454 0-13.006-1.271-19.558-1.271-3.813 8.996-7.823 16.721-11.636 25.718v1.271c-6.552 0-11.735 1.271-18.287 1.271-5.182-7.725-11.734-14.081-14.276-23.175-1.37 1.271-3.912 1.271-6.552 2.542L395.046 185v28.358c-3.911 2.543-9.094 5.085-13.005 7.726-3.912 1.369-7.432 3.52-10.366 6.453l-27.38-11.538c-3.912 5.085-9.095 8.996-13.006 14.179 3.911 8.996 9.094 16.721 13.006 25.718-0.294 1.956-1.174 3.716-2.543 5.085-2.64 5.182-5.28 8.996-7.823 14.179 0 1.271-1.271 1.271-2.64 1.271-9.094 1.37-18.189 1.37-27.283 1.37-1.271 1.27-1.271 1.27-1.271 2.542-2.64 5.085-3.912 10.267-5.183 15.45-1.369 1.271 1.271 2.64 1.271 2.64 7.823 5.085 14.277 10.268 22.1 15.45-1.27 6.455-1.27 12.909-1.27 20.634-9.095 3.814-16.918 8.996-26.11 12.81 1.271 6.454 1.271 12.908 2.64 19.362 9.094 1.271 19.558 2.542 28.652 5.085 2.542 6.454 3.911 12.908 6.454 17.993L311.73 412.94c3.912 5.085 6.552 11.54 10.464 16.722h1.27c10.464-2.542 19.558-3.814 28.653-6.454 1.27 2.64 2.64 3.814 3.911 5.183 3.912 5.085 9.094 10.267 14.375 14.179-1.271 10.268-3.912 19.264-5.183 29.532 5.183 3.813 11.735 7.725 16.917 10.267 6.552-6.454 14.277-12.81 22.1-19.264 5.183 1.272 10.464 3.814 16.918 5.085 1.27 0 2.64 0 2.64 1.271 2.64 8.997 5.183 19.265 7.823 28.261 6.454 0 13.005 1.271 19.557 1.271 1.271 0 1.271-1.271 1.271-1.271 3.912-8.996 7.823-17.993 11.735-25.718 6.552 0 11.734-1.271 18.188-2.543 5.183 7.726 11.735 14.18 16.918 21.905 1.27-1.271 3.911-1.271 6.551-2.543l11.735-3.813v-28.359c3.911-2.542 9.094-5.085 13.006-7.725a28.422 28.422 0 0 0 10.463-6.454c9.094 3.814 16.917 7.725 23.371 10.268 3.716-5.378 8.899-9.192 12.81-14.375z m-123.7-12.81c-49.677 0-89.867-39.8-89.867-88.791s40.19-88.693 89.866-88.693c49.578 0 89.867 39.702 89.867 88.693s-40.289 88.79-89.867 88.79z" fill="#2c2c2c" p-id="34016"></path><path d="M512.88 11.23C236.337 11.23 12.21 235.36 12.21 511.903s224.128 500.672 500.671 500.672 500.672-224.129 500.672-500.672S789.422 11.231 512.88 11.231z m314.484 412.957c-1.369 54.076-76.86 151.766-76.86 151.766-59.846 84.88-20.83 191.663-20.83 191.663-121.158 26.99-244.859 118.323-244.859 118.323-5.28-25.718-46.938-92.605-46.938-92.605-24.74-29.531-65.126-19.264-87.226-16.721-62.486 7.823-78.132-10.268-78.132-10.268-14.277-7.823-7.823-42.44-7.823-42.44 5.182-17.993-2.64-27.087-7.823-33.54-13.006-19.265-5.183-28.261-5.183-28.261 3.911-5.183 1.271-7.726 1.271-7.726-15.646-5.085-16.917-12.907-16.917-12.907v-26.99c2.64-19.264-6.552-20.535-6.552-20.535-35.203-1.37-33.834-23.176-33.834-23.176-1.37-11.636 40.386-84.88 40.386-84.88 19.557-37.354-9.094-59.16-10.365-78.523-9.095-88.693 20.828-144.04 62.486-186.48 69.038-70.7 156.264-83.608 213.665-83.608C649 138.55 707.575 184.9 753.144 233.697c93.68 104.34 74.22 194.401 74.22 190.49z" fill="#2c2c2c" p-id="34017"></path></svg>