<?xml version="1.0" standalone="no"?><!DOCTYPE svg PUBLIC "-//W3C//DTD SVG 1.1//EN" "http://www.w3.org/Graphics/SVG/1.1/DTD/svg11.dtd"><svg t="1680463267696" class="icon" viewBox="0 0 1024 1024" version="1.1" xmlns="http://www.w3.org/2000/svg" p-id="4758" xmlns:xlink="http://www.w3.org/1999/xlink" width="16" height="16"><path d="M85.333333 85.333333h170.666667v85.333334H170.666667v682.666666h85.333333v85.333334H85.333333V85.333333m768 85.333334h-85.333333V85.333333h170.666667v853.333334h-170.666667v-85.333334h85.333333V170.666667M384 213.333333h42.666667v213.333334h42.666666v42.666666H341.333333v-42.666666h42.666667V256l-42.666667 21.333333v-42.666666L384 213.333333m256 341.333334h42.666667v213.333333h42.666666v42.666667h-128v-42.666667h42.666667v-170.666667l-42.666667 21.333334v-42.666667l42.666667-21.333333m-256 0c46.933333 0 85.333333 57.173333 85.333333 128s-38.4 128-85.333333 128-85.333333-57.173333-85.333333-128 38.4-128 85.333333-128m0 42.666666c-23.466667 0-42.666667 38.4-42.666667 85.333334s19.2 85.333333 42.666667 85.333333 42.666667-38.4 42.666667-85.333333-19.2-85.333333-42.666667-85.333334m256-384c46.933333 0 85.333333 57.173333 85.333333 128s-38.4 128-85.333333 128-85.333333-57.173333-85.333333-128 38.4-128 85.333333-128m0 42.666667c-23.466667 0-42.666667 38.4-42.666667 85.333333s19.2 85.333333 42.666667 85.333334 42.666667-38.4 42.666667-85.333334-19.2-85.333333-42.666667-85.333333z" fill="" p-id="4759"></path></svg>