<?xml version="1.0" standalone="no"?><!DOCTYPE svg PUBLIC "-//W3C//DTD SVG 1.1//EN" "http://www.w3.org/Graphics/SVG/1.1/DTD/svg11.dtd"><svg t="1680463453765" class="icon" viewBox="0 0 1024 1024" version="1.1" xmlns="http://www.w3.org/2000/svg" p-id="6394" xmlns:xlink="http://www.w3.org/1999/xlink" width="16" height="16"><path d="M512 1008.896a497.152 497.152 0 0 1-148.992-971.52 25.6 25.6 0 1 1 15.36 48.896 445.952 445.952 0 1 0 559.36 559.36 25.6 25.6 0 1 1 48.896 15.36A494.336 494.336 0 0 1 512 1008.896z" p-id="6395"></path><path d="M537.6 79.36A462.592 462.592 0 0 1 944.384 486.4H537.6V79.616m0-51.2a51.2 51.2 0 0 0-51.2 51.2V486.4a51.2 51.2 0 0 0 51.2 51.2h406.784a51.2 51.2 0 0 0 51.2-55.552A512 512 0 0 0 541.952 28.672z" p-id="6396"></path></svg>