<?xml version="1.0" standalone="no"?><!DOCTYPE svg PUBLIC "-//W3C//DTD SVG 1.1//EN" "http://www.w3.org/Graphics/SVG/1.1/DTD/svg11.dtd"><svg t="1680466505364" class="icon" viewBox="0 0 1024 1024" version="1.1" xmlns="http://www.w3.org/2000/svg" p-id="73435" xmlns:xlink="http://www.w3.org/1999/xlink" width="16" height="16"><path d="M634.88 143.36c-13.653333-10.24-27.306667-20.48-34.133333-30.72L580.266667 58.026667s0-3.413333-3.413334-3.413334v-3.413333l-6.826666-6.826667h-3.413334c-3.413333 0-3.413333-3.413333-6.826666-3.413333H549.546667 546.133333h-3.413333c-3.413333 0-3.413333 0-3.413333 3.413333 0 0-3.413333 0-3.413334 3.413334-3.413333 0-3.413333 3.413333-6.826666 3.413333 0 0 0 3.413333-3.413334 3.413333 0 3.413333-3.413333 3.413333-3.413333 6.826667v675.84c-20.48-10.24-47.786667-17.066667-75.093333-17.066667-20.48 0-37.546667 3.413333-58.026667 6.826667-92.16 23.893333-153.6 98.986667-136.533333 174.08 13.653333 54.613333 68.266667 92.16 143.36 92.16 20.48 0 37.546667-3.413333 58.026666-6.826667 85.333333-23.893333 143.36-88.746667 139.946667-157.013333V358.4c3.413333 3.413333 10.24 6.826667 13.653333 10.24 75.093333 54.613333 88.746667 78.506667 88.746667 153.6l-30.72 78.506667c-6.826667 17.066667 0 37.546667 17.066667 44.373333-10.24 3.413333-3.413333 3.413333 0 3.413333 13.653333 0 27.306667-6.826667 30.72-20.48l34.133333-81.92c75.093333-160.426667 34.133333-303.786667-112.64-402.773333z" fill="" p-id="73436"></path></svg>